GIL08_free_grf.mot																		
version=4																		
nRows=67																		
nColumns=19																		
inDegrees=yes																		
endheader																		
																		
time	     ground_force_vx	     ground_force_vy	     ground_force_vz	     ground_force_px	     ground_force_py	     ground_force_pz	     1_ground_force_vx	     1_ground_force_vy	     1_ground_force_vz	     1_ground_force_px	     1_ground_force_py	     1_ground_force_pz	     ground_torque_x	     ground_torque_y	     ground_torque_z	     1_ground_torque_x	    1_ground_torque_y	     1_ground_torque_z
0.14999999	0	0	0	1.94790283	0	0.084339165	-72.38696254	570.9413435	17.36413273	1.4525979	0	-0.084339165	0	0	0	0	0.93820056	0
0.15833332	0	0	0	1.95125464	0	0.083397195	-68.3902108	578.7870103	17.19966843	1.4521084	0	-0.084372275	0	0	0	0	0.95877124	0
0.16666666	0	0	0	1.95497363	0	0.082441695	-63.42277368	585.0088624	16.65825623	1.45151733	0	-0.084386985	0	0	0	0	0.98513397	0
0.17499998	0	0	0	1.95900757	0	0.081484355	-58.06533174	587.9151762	15.81005796	1.45090723	0	-0.084384845	0	0	0	0	0.99822729	0
0.18333332	0	0	0	1.96327637	0	0.080522745	-52.72418252	587.5000095	14.7948428	1.45035022	0	-0.084377465	0	0	0	0	0.98584277	0
0.19166665	0	0	0	1.96766113	0	0.079551125	-47.65093523	584.5162466	13.75777608	1.44990991	0	-0.084376605	0	0	0	0	0.94500513	0
0.19999999	0	0	0	1.97203857	0	0.078566725	-42.97654148	579.7787484	12.89911783	1.44965356	0	-0.084389455	0	0	0	0	0.87743481	0
0.20833331	0	0	0	1.97630591	0	0.077571845	-38.75741073	573.9107203	12.35270431	1.44965308	0	-0.084414115	0	0	0	0	0.79105499	0
0.21666665	0	0	0	1.98038281	0	0.076570565	-35.03365661	567.3513611	12.11671471	1.44996619	0	-0.084448535	0	0	0	0	0.69706213	0
0.22499999	0	0	0	1.9842124	0	0.075573225	-31.77353959	560.4184993	12.11508631	1.45060168	0	-0.084494675	0	0	0	0	0.60374152	0
0.23333332	0	0	0	1.98777222	0	0.074596695	-28.83782032	553.3262169	12.27269153	1.45152454	0	-0.084548325	0	0	0	0	0.51215576	0
0.24166664	0	0	0	1.99107446	0	0.073658615	-26.12588549	546.3087286	12.5112705	1.45269604	0	-0.084599145	0	0	0	0	0.41920435	0
0.24999999	0	0	0	1.9941543	0	0.072774405	-23.67776771	539.6592529	12.75131645	1.45411108	0	-0.084635795	0	0	0	0	0.32064166	0
0.25833333	0	0	0	1.99705029	0	0.071960855	-21.5371806	533.5588956	12.89123082	1.45578491	0	-0.084657155	0	0	0	0	0.21250291	0
0.26666665	0	0	0	1.99980151	0	0.071233895	-19.60212797	528.1575544	12.82624788	1.45774731	0	-0.084656335	0	0	0	0	0.08969528	0
0.27499998	0	0	0	2.00243018	0	0.070605935	-17.7031625	523.6639254	12.53046923	1.46002356	0	-0.084628655	0	0	0	0	-0.04683438	0
0.2833333	0	0	0	2.00493335	0	0.070078225	-15.7195639	520.0685169	12.10066431	1.4626366	0	-0.084582845	0	0	0	0	-0.19107916	0
0.29166666	0	0	0	2.00730664	0	0.069637035	-13.61176757	517.12376	11.71422681	1.46561975	0	-0.084531025	0	0	0	0	-0.33769095	0
0.29999998	0	0	0	2.00958105	0	0.069253445	-11.43766349	514.6096672	11.52705898	1.46902588	0	-0.084473505	0	0	0	0	-0.47947757	0
0.30833334	0	0	0	2.01181396	0	0.068894755	-9.33014728	512.3525214	11.59307149	1.47289563	0	-0.084405235	0	0	0	0	-0.60997272	0
0.31666666	0	0	0	2.01401758	0	0.068542885	-7.44250514	510.3205655	11.87998646	1.47721326	0	-0.084322315	0	0	0	0	-0.73047363	0
0.32499999	0	0	0	2.0161272	0	0.068191995	-5.88769461	508.6176175	12.31325483	1.48194324	0	-0.084228535	0	0	0	0	-0.84029474	0
0.33333331	0	0	0	2.01805371	0	0.067846405	-4.64998495	507.3725324	12.82920907	1.48704004	0	-0.084117875	0	0	0	0	-0.93300977	0
0.34166664	0	0	0	2.01975537	0	0.067512495	-3.56274705	506.7382471	13.3934728	1.49240491	0	-0.083981065	0	0	0	0	-1.00266266	0
0.34999996	0	0	0	2.02125903	0	0.067202225	-2.45499975	506.8264242	13.95760258	1.49792041	0	-0.083816155	0	0	0	0	-1.05028992	0
0.35833332	0	0	0	2.02262134	0	0.066933955	-1.25676255	507.6623952	14.43266602	1.50352502	0	-0.083619615	0	0	0	0	-1.08197363	0
0.36666664	0	0	0	2.02389575	0	0.066709485	0.02864593	509.1965771	14.74905326	1.50920874	0	-0.083378345	0	0	0	0	-1.10347949	0
0.375	0	0	0	2.02513867	0	0.066522335	1.34612687	511.3399515	14.89719616	1.51498572	0	-0.083091085	0	0	0	0	-1.1150769	0
0.38333333	0	0	0	2.02639453	0	0.066370265	2.58096585	514.06577	14.87890088	1.52088025	0	-0.082764975	0	0	0	0	-1.11710059	0
0.39166665	0	0	0	2.02767993	0	0.066256355	3.58636055	517.3621715	14.66354804	1.52688208	0	-0.082414025	0	0	0	0	-1.11410828	0
0.39999998	0	0	0	2.02901123	0	0.066189095	4.30142275	521.1575792	14.2700111	1.53294006	0	-0.082053705	0	0	0	0	-1.11450671	0
0.40833333	0	0	0	2.03042529	0	0.066166975	4.82565084	525.2363044	13.79938646	1.53899927	0	-0.081701375	0	0	0	0	-1.12433997	0
0.41666666	0	0	0	2.03194604	0	0.066175515	5.33710249	529.4344036	13.38670465	1.5449884	0	-0.081370995	0	0	0	0	-1.1407771	0
0.42499998	0	0	0	2.03354639	0	0.066203775	6.01857169	533.7432775	13.12063781	1.55080005	0	-0.081073875	0	0	0	0	-1.15773633	0
0.43333331	0	0	0	2.0351709	0	0.066234725	7.01869427	538.3290222	13.0229726	1.55629846	0	-0.080820025	0	0	0	0	-1.17468237	0
0.44166666	0	0	0	2.03676709	0	0.066262795	8.44586221	543.449329	13.06316401	1.56134436	0	-0.080615105	0	0	0	0	-1.19566589	0
0.44999999	0	0	0	2.03828857	0	0.066294185	10.41912626	549.4204091	13.21694087	1.5658031	0	-0.080460955	0	0	0	0	-1.22164453	0
0.45833331	0	0	0	2.03969702	0	0.066345055	13.07594997	556.6134918	13.50796777	1.56955212	0	-0.080359025	0	0	0	0	-1.24696582	0
0.46666664	0	0	0	2.04098535	0	0.066437695	16.46695762	565.2619126	13.98327624	1.57253662	0	-0.080305435	0	0	0	0	-1.25819568	0
0.47499999	0	0	0	2.04217773	0	0.066586295	20.52852829	575.2748593	14.6798387	1.57478308	0	-0.080295435	0	0	0	0	-1.23563159	0
0.48333332	0	0	0	2.04327832	0	0.066790035	25.15753974	586.2066828	15.47790967	1.57640088	0	-0.080314255	0	0	0	0	-1.18130151	0
0.49166664	0	0	0	2.04424854	0	0.067032615	30.18299156	597.3827318	15.91522344	1.57757178	0	-0.080333365	0	0	0	0	-1.15449341	0
0.49999997	0	0	0	2.0450918	0	0.067272075	35.23394027	608.133626	15.7640483	1.57849536	0	-0.080330705	0	0	0	0	-1.19896802	0
0.50833333	0	0	0	2.04594458	0	0.067449165	40.31826027	617.8999231	15.27811057	1.57930762	0	-0.080320695	0	0	0	0	-1.28508716	0
0.51666665	0	0	0	2.04705078	0	0.067492015	45.56400497	626.3081838	14.73270782	1.58009216	0	-0.080324635	0	0	0	0	-1.37293066	0
0.52499998	0	0	0	2.04869019	0	0.067272475	50.86847469	633.2294071	14.27049573	1.58087842	0	-0.080358445	0	0	0	0	-1.44029224	0
0.5333333	0	0	0	2.05123364	0	0.066645795	56.19355682	638.5013148	13.95076142	1.58166931	0	-0.080435135	0	0	0	0	-1.47492505	0
0.54166663	0	0	0	2.05506177	0	0.065573715	61.56961193	641.8434787	13.78797469	1.58246619	0	-0.080564865	0	0	0	0	-1.46911743	0
0.54999995	0	0	0	2.06023462	0	0.064190595	66.98024842	643.0143959	13.71463148	1.58326965	0	-0.080749925	0	0	0	0	-1.42150732	0
0.55833328	0	0	0	2.06640723	0	0.062767865	72.37373147	641.844874	13.6004189	1.58408093	0	-0.080984425	0	0	0	0	-1.33693018	0
0.56666666	0	0	0	2.073021	0	0.061592265	77.70864631	638.2408863	13.31501711	1.58489709	0	-0.081246415	0	0	0	0	-1.22478369	0
0.57499999	0	0	0	2.07932178	0	0.060789075	82.97417798	632.2123607	12.75975935	1.58569543	0	-0.081501515	0	0	0	0	-1.0930127	0
0.58333331	-1.98993825	8.3851527	-0.38297987	2.08457813	0	0.060216045	88.14094495	623.8488359	11.88085962	1.58643286	0	-0.081722095	0	0.03029594	0	0	-0.94327625	0
0.59166664	-9.13176031	59.56700243	-1.44381822	2.08859521	0	0.059664425	93.15468978	613.1590105	10.68064674	1.58705835	0	-0.081902635	0	0.08469484	0	0	-0.7680426	0
0.60000002	-20.09550363	149.2000623	-2.78549197	2.09167871	0	0.059079355	97.88808407	599.8362843	9.22545662	1.58751819	0	-0.082043445	0	0.15842337	0	0	-0.55521973	0
0.60833335	-28.88897624	231.7567694	-2.59701177	2.09398315	0	0.058477395	102.0531716	582.8633235	7.63243161	1.5878241	0	-0.082126915	0	0.17994235	0	0	-0.29948975	0
0.61666667	-34.13070833	272.9038259	0.01631395	2.09660645	0	0.057884955	105.0410305	560.6718433	6.04803707	1.58811108	0	-0.082106985	0	0.12543152	0	0	-0.01129401	0
0.625	-40.636868	294.1440131	3.31318538	2.10007446	0	0.057311595	106.0977394	532.3683691	4.45295476	1.5885011	0	-0.081931995	0	0.03099555	0	0	0.26527942	0
0.63333333	-49.30384751	310.5205711	5.95627945	2.10461401	0	0.056768445	105.0828283	497.6975789	2.59203306	1.58896948	0	-0.081612235	0	-0.06873103	0	0	0.47547937	0
0.64166665	-58.67354257	331.1894007	7.30498256	2.11040674	0	0.056121775	102.4894921	456.0327506	0.43210879	1.58940063	0	-0.081218675	0	-0.09743286	0	0	0.60227026	0
0.64999998	-69.54221818	361.8546928	7.38204431	2.11694458	0	0.055156705	98.15350982	406.6173086	-1.80903195	1.58973486	0	-0.080836045	0	0.07264271	0	0	0.653005	0
0.6583333	-82.92841018	401.0423553	6.6653262	2.12344678	0	0.053840405	91.03361575	348.9816442	-3.90386409	1.59010046	0	-0.080481895	0	0.47945471	0	0	0.62803333	0
0.66666663	-96.64664616	443.0008996	5.55444416	2.12923218	0	0.052397955	79.75277483	284.0402215	-5.61908395	1.59086389	0	-0.080032645	0	0.92368927	0	0	0.52420471	0
0.67500001	-106.4827257	482.147198	4.37436977	2.13383032	0	0.051125685	63.47556104	215.8148814	-6.72771314	1.59263208	0	-0.079194535	0	1.08546436	0	0	0.35277612	0
0.68333334	-110.3618767	516.3226167	2.78926521	2.1370542	0	0.050245295	43.40281746	151.6741708	-7.12800225	1.596245	0	-0.077552115	0	0.91154547	0	0	0.15628589	0
0.69166666	-110.3154962	546.5752354	0.0799681	2.13914233	0	0.049813445	23.40101946	99.59311547	-6.90452373	1.60238525	0	-0.074798875	0	0.63577228	0	0	0.00773889	0
0.69999999	-108.5692254	572.6764662	-3.32926428	2.14050684	0	0.049729995	8.02156556	63.13119837	-6.28323353	1.61058594	0	-0.071364005	0	0.3710144	0	0	-0.04813489	0
